<?xml version="1.0" encoding="UTF-8"?>
<!DOCTYPE svg PUBLIC "-//W3C//DTD SVG 1.1//EN" "http://www.w3.org/Graphics/SVG/1.1/DTD/svg11.dtd">
<!-- Creator: CorelDRAW X5 -->
<svg xmlns="http://www.w3.org/2000/svg" xml:space="preserve" width="151.262mm" height="45.6644mm" style="shape-rendering:geometricPrecision; text-rendering:geometricPrecision; image-rendering:optimizeQuality; fill-rule:evenodd; clip-rule:evenodd"
viewBox="0 0 15268 4609"
 xmlns:xlink="http://www.w3.org/1999/xlink">
 <defs>
  <style type="text/css">
   <![CDATA[
    .fil3 {fill:#500010}
    .fil2 {fill:#A00020}
    .fil1 {fill:#D00030}
    .fil0 {fill:#500010;fill-rule:nonzero}
   ]]>
  </style>
 </defs>
 <g id="Warstwa_x0020_1">
  <metadata id="CorelCorpID_0Corel-Layer"/>
  <g id="_180571384">
   <path class="fil0" d="M6707 2873c19,-3 41,-6 65,-7 25,-2 48,-2 70,-2 22,0 46,1 72,2 26,2 48,4 65,7l442 1069 444 -1069c16,-3 36,-6 59,-7 24,-2 47,-2 69,-2 21,0 44,1 69,2 25,2 47,4 64,7l20 1707c-19,3 -38,6 -58,7 -20,2 -40,2 -61,2 -21,0 -41,-1 -61,-2 -20,-2 -38,-4 -56,-7l6 -1327 -418 974c-32,5 -64,7 -97,7 -30,0 -60,-2 -90,-7l-404 -981 0 1335c-17,3 -36,6 -55,7 -19,2 -37,2 -55,2 -21,0 -40,-1 -59,-2 -19,-2 -37,-4 -55,-7l21 -1707zm1857 489c17,-3 37,-6 59,-7 22,-2 41,-2 57,-2 17,0 37,1 59,2 22,2 42,4 59,7l0 667c0,76 7,139 21,189 14,50 36,89 64,118 29,28 63,48 104,59 41,11 89,17 142,17 81,0 150,-9 207,-26l0 -1024c17,-3 37,-6 58,-7 21,-2 41,-2 58,-2 17,0 37,1 58,2 21,2 41,4 58,7l0 1180c-55,16 -122,31 -198,45 -77,14 -156,21 -239,21 -78,0 -151,-7 -220,-20 -69,-13 -129,-41 -182,-82 -52,-41 -93,-99 -123,-173 -30,-74 -45,-173 -45,-294l0 -677zm1256 1185l641 -997 -565 0c-5,-28 -7,-60 -7,-95 0,-33 2,-64 7,-93l914 0 12 31 -646 1000 606 0c5,32 7,64 7,97 0,32 -2,62 -7,90l-950 0 -12 -33zm1897 -539c-24,-3 -54,-6 -90,-9 -36,-3 -67,-5 -93,-5 -98,0 -173,18 -224,55 -51,36 -77,92 -77,166 0,47 9,85 26,112 17,27 39,47 65,62 26,14 55,23 87,26 32,3 62,5 90,5 36,0 74,-2 113,-6 39,-4 73,-10 103,-18l0 -387zm0 -230c0,-93 -24,-158 -71,-195 -48,-36 -116,-55 -207,-55 -55,0 -107,4 -156,13 -48,9 -95,20 -141,34 -30,-52 -45,-115 -45,-188 54,-17 113,-31 178,-40 65,-10 127,-14 188,-14 158,0 279,36 361,108 82,72 123,187 123,346l0 762c-55,13 -123,26 -202,39 -79,13 -160,20 -242,20 -78,0 -148,-7 -210,-21 -63,-14 -116,-37 -159,-69 -44,-32 -77,-72 -101,-121 -24,-49 -36,-108 -36,-178 0,-68 14,-128 42,-179 28,-51 65,-94 113,-128 47,-34 102,-59 164,-76 62,-17 127,-25 195,-25 51,0 92,1 125,4 32,2 60,5 82,8l0 -45zm655 -230l-154 0c-3,-13 -6,-27 -7,-44 -2,-17 -2,-33 -2,-49 0,-16 1,-32 2,-49 2,-17 4,-31 7,-44l385 0 0 1218c-17,3 -37,6 -58,7 -21,2 -41,2 -58,2 -16,0 -34,-1 -56,-2 -21,-2 -41,-4 -58,-7l0 -1033zm-52 -454c-3,-19 -5,-40 -6,-62 -1,-22 -1,-42 -1,-59 0,-17 0,-37 1,-59 1,-22 3,-42 6,-59 21,-3 43,-6 66,-7 24,-2 44,-2 62,-2 17,0 38,1 62,2 24,2 45,4 64,7 3,17 5,37 6,59 1,22 1,42 1,59 0,17 0,37 -1,59 -1,22 -3,43 -6,62 -19,3 -40,6 -63,7 -23,2 -43,2 -61,2 -19,0 -40,-1 -64,-2 -24,-2 -46,-4 -66,-7zm655 -254c17,-3 37,-6 58,-7 21,-2 41,-2 58,-2 17,0 37,1 59,2 22,2 42,4 59,7l0 1741c-17,3 -37,6 -59,7 -22,2 -42,2 -59,2 -17,0 -37,-1 -58,-2 -21,-2 -41,-4 -58,-7l0 -1741zm299 1109l387 -587c21,-3 41,-6 62,-7 21,-2 42,-2 64,-2 24,0 46,1 68,2 21,2 43,4 65,7l-387 570 454 648c-22,3 -44,6 -64,7 -21,2 -42,2 -64,2 -22,0 -44,-1 -66,-2 -22,-2 -44,-4 -66,-7l-451 -632zm1425 660c-95,0 -178,-16 -249,-49 -71,-32 -131,-77 -178,-134 -48,-57 -83,-124 -106,-202 -23,-78 -34,-161 -34,-252 0,-90 11,-174 34,-252 23,-78 58,-145 106,-202 47,-57 107,-102 178,-135 71,-33 154,-50 249,-50 95,0 178,17 249,50 71,33 131,78 178,135 48,57 83,124 106,202 23,78 34,161 34,252 0,90 -11,174 -34,252 -23,78 -58,145 -106,202 -47,57 -107,102 -178,134 -71,32 -154,49 -249,49zm0 -188c109,0 190,-40 242,-119 52,-79 78,-189 78,-330 0,-141 -26,-251 -78,-329 -52,-78 -133,-118 -242,-118 -109,0 -190,39 -241,118 -51,78 -77,188 -77,329 0,141 26,251 77,330 51,79 132,119 241,119z"/>
   <g>
    <g>
     <path class="fil1" d="M5016 4247c155,-175 249,-405 249,-657l-1 -315 -307 -284 -299 314 358 942z"/>
     <polygon class="fil1" points="3701,3604 4095,3212 4215,3656 4128,3940 "/>
     <polygon class="fil1" points="2945,1153 3106,1316 2902,1961 2729,1789 "/>
     <polygon class="fil1" points="1375,905 1873,707 1943,1129 1375,1224 "/>
     <path class="fil1" d="M1698 4285c124,-126 215,-285 257,-463l-579 -505 -249 327 571 642z"/>
     <path class="fil1" d="M1739 13c-171,-32 -356,104 -355,263l-8 209 474 105 -111 -576z"/>
     <path class="fil1" d="M4 3673c19,225 113,429 257,586l313 -202 -180 -398 -389 15z"/>
     <path class="fil1" d="M928 2601c-232,15 -442,109 -604,256l382 322 222 -577z"/>
     <polygon class="fil1" points="1983,2835 1403,2461 1983,2055 "/>
     <polygon class="fil1" points="3915,947 4520,1165 3803,1886 3690,1698 "/>
     <polygon class="fil1" points="4654,1182 5258,1064 5258,1138 4650,1613 "/>
    </g>
    <g>
     <path class="fil2" d="M4041 4553c75,18 153,28 233,28 261,0 499,-101 676,-266l-359 -939 -291 305 -259 872z"/>
     <polygon class="fil2" points="2284,492 1954,671 2031,1113 2659,867 "/>
     <polygon class="fil2" points="1983,1210 1469,1298 1984,1541 "/>
     <path class="fil2" d="M1067 4578c215,-16 411,-101 566,-233l-526 -589 -40 822z"/>
     <polygon class="fil2" points="475,3624 724,3319 1003,3642 641,3996 "/>
     <path class="fil2" d="M322 4320c133,122 299,208 483,243l-196 -427 -287 184z"/>
     <polygon class="fil2" points="1375,2547 1375,2676 1411,3207 1982,3208 1983,2940 "/>
     <polygon class="fil2" points="3023,2084 2970,2030 3174,1385 3568,1704 "/>
     <polygon class="fil2" points="3965,871 4650,183 5258,751 5258,975 4609,1101 "/>
     <polygon class="fil2" points="4650,1827 4650,2594 5264,3151 5262,2524 "/>
     <path class="fil2" d="M3946 2654c-299,105 -532,349 -623,655l308 241 437 -433 -122 -463z"/>
    </g>
    <g>
     <polygon class="fil3" points="2114,1173 2728,936 2875,1084 2661,1720 "/>
     <polygon class="fil3" points="1375,574 1761,659 1375,811 "/>
     <path class="fil3" d="M909 4577c23,2 45,3 68,3l42 -827 -341 327 231 497z"/>
     <path class="fil3" d="M2219 427l-2 -2 -146 -146c-66,-65 -133,-142 -203,-203 -11,-9 -22,-18 -34,-25l104 529 281 -152z"/>
     <path class="fil3" d="M263 2918l399 339 -260 315 -401 16c0,-259 100,-494 263,-670z"/>
     <path class="fil3" d="M1290 2645c-85,-27 -176,-43 -269,-46l-249 643 295 335 258 -340 -35 -592z"/>
     <path class="fil3" d="M1973 3723c6,-44 9,-88 9,-133l0 0 0 -291 -497 -3 487 427z"/>
     <polygon class="fil3" points="1375,1351 1985,1639 1984,1953 1375,2373 "/>
     <path class="fil3" d="M3086 2146c58,54 132,101 234,100 168,-2 293,-173 407,-286l10 -9 -108 -183 -543 378z"/>
     <path class="fil3" d="M5258 628l0 -183c0,-160 12,-327 -166,-414 -47,-23 -105,-36 -166,-29 -105,11 -163,66 -212,117l0 0 545 510z"/>
     <polygon class="fil3" points="3383,1448 3622,1632 3793,1043 "/>
     <polygon class="fil3" points="4667,1710 5258,1250 5261,2391 "/>
     <path class="fil3" d="M4893 2928l-303 -277c-99,-33 -206,-52 -316,-52 -85,0 -167,11 -246,31l252 948 613 -649z"/>
     <path class="fil3" d="M4100 4030l-800 -627c-11,60 -18,123 -18,186 0,436 281,806 672,939l145 -498z"/>
    </g>
   </g>
  </g>
 </g>
</svg>
